<svg width="67" height="17" viewBox="0 0 67 17" fill="none" xmlns="http://www.w3.org/2000/svg">
<path d="M9.002 0L11.128 6.494H18.005L12.441 10.506L14.566 17L9.002 12.987L3.438 17L5.564 10.506L0 6.494H6.878L9.002 0Z" fill="#81B3D2"/>
<path d="M34.002 0L36.128 6.494H43.005L37.441 10.506L39.566 17L34.002 12.987L28.438 17L30.564 10.506L25 6.494H31.878L34.002 0Z" fill="#81B3D2"/>
<path d="M57.002 0L59.128 6.494H66.005L60.441 10.506L62.566 17L57.002 12.987L51.438 17L53.564 10.506L48 6.494H54.878L57.002 0Z" fill="#81B3D2"/>
</svg>
